<svg version="1.0" xmlns="http://www.w3.org/2000/svg" width="500.000000pt" height="500.000000pt" viewBox="0 0 500.000000 500.000000" preserveAspectRatio="xMidYMid meet">

<g transform="translate(0.000000,500.000000) scale(0.100000,-0.100000)" fill="#000000" stroke="none">
<path d="M2423 4099 c-23 -11 -51 -35 -62 -52 -11 -18 -416 -725 -900 -1572
l-881 -1539 0 -57 c0 -62 22 -105 73 -143 l28 -21 1818 0 1818 0 37 29 c46 34
66 79 66 143 0 44 -20 83 -256 498 -142 247 -260 454 -264 458 -6 6 -328 -168
-348 -188 -2 -2 66 -125 152 -274 l155 -271 -1359 0 -1359 0 677 1185 c372
652 679 1185 682 1185 3 0 72 -118 154 -263 82 -144 150 -264 152 -265 2 -3
331 183 343 194 6 6 -505 896 -530 923 -49 52 -127 64 -196 30z" data-index="0" style="visibility: visible;"></path>
<path d="M3245 2723 c-60 -18 -143 -71 -171 -110 -58 -78 -69 -113 -69 -218 0
-90 3 -105 28 -153 36 -69 98 -129 167 -161 46 -21 69 -26 140 -26 106 0 176
29 249 104 64 66 91 136 91 235 0 123 -49 219 -144 282 -92 61 -193 77 -291
47z" data-index="1" style="visibility: visible;"></path>
</g>
</svg>